HIERARCHY
ROOT root
{
	OFFSET	0	13.1	24.9
	CHANNELS 6  Xposition Yposition Zposition Xrotation Yrotation Zrotation
	JOINT spine_1
	{
		OFFSET	0	9.99999	0
		CHANNELS 3  Xrotation Yrotation Zrotation
		JOINT spine_2
		{
			OFFSET	0	112	-10
			CHANNELS 3  Xrotation Yrotation Zrotation
			JOINT spine_3
			{
				OFFSET	0	206.5	19.3
				CHANNELS 3  Xrotation Yrotation Zrotation
				JOINT spine_4
				{
					OFFSET	0	110.4	14.6
					CHANNELS 3  Xrotation Yrotation Zrotation
					JOINT neck_1
					{
						OFFSET	0	71.8	-50.3
						CHANNELS 3  Xrotation Yrotation Zrotation
						JOINT neck_2
						{
							OFFSET	0	86.2	-25.8
							CHANNELS 3  Xrotation Yrotation Zrotation
							JOINT head_ee
							{
								OFFSET	0	179.8	-8.7
								CHANNELS 3  Xrotation Yrotation Zrotation
								End Site
								{
									OFFSET	1	0	0
								}
							}
						}
					}
					JOINT left_clavicle
					{
						OFFSET	-43.2	22.4	-70.8
						CHANNELS 3  Xrotation Yrotation Zrotation
						JOINT left_shoulder
						{
							OFFSET	-93.9	-5.79999	48.7
							CHANNELS 3  Xrotation Yrotation Zrotation
							JOINT left_elbow
							{
								OFFSET	-291.4	-30.8	15.2
								CHANNELS 3  Xrotation Yrotation Zrotation
								JOINT left_lowarm_twist
								{
									OFFSET	-110.7	-3.89999	13.6
									CHANNELS 3  Xrotation Yrotation Zrotation
									JOINT left_hand
									{
										OFFSET	-110.7	-3.89999	13.6
										CHANNELS 3  Xrotation Yrotation Zrotation
										JOINT left_ee
										{
											OFFSET	-80.8	-5.10001	12.1
											CHANNELS 3  Xrotation Yrotation Zrotation
											End Site
											{
												OFFSET	1	0	0
											}
										}
									}
								}
							}
						}
					}
					JOINT right_clavicle
					{
						OFFSET	43.2	22.4	-70.8
						CHANNELS 3  Xrotation Yrotation Zrotation
						JOINT right_shoulder
						{
							OFFSET	93.9	-5.79999	48.7
							CHANNELS 3  Xrotation Yrotation Zrotation
							JOINT right_elbow
							{
								OFFSET	291.4	-30.8	15.2
								CHANNELS 3  Xrotation Yrotation Zrotation
								JOINT right_lowarm_twist
								{
									OFFSET	110.7	-3.89999	13.6
									CHANNELS 3  Xrotation Yrotation Zrotation
									JOINT right_hand
									{
										OFFSET	110.7	-3.89999	13.6
										CHANNELS 3  Xrotation Yrotation Zrotation
										JOINT right_ee
										{
											OFFSET	80.8	-5.10001	12.1
											CHANNELS 3  Xrotation Yrotation Zrotation
											End Site
											{
												OFFSET	1	0	0
											}
										}
									}
								}
							}
						}
					}
				}
			}
		}
	}
	JOINT left_hip
	{
		OFFSET	-82.8	-127.5	0.300001
		CHANNELS 3  Xrotation Yrotation Zrotation
		JOINT left_knee
		{
			OFFSET	-28.2	-396.7	2.2
			CHANNELS 3  Xrotation Yrotation Zrotation
			JOINT left_ankle
			{
				OFFSET	-11.7	-411.3	35.4
				CHANNELS 3  Xrotation Yrotation Zrotation
				JOINT left_toes
				{
					OFFSET	0	-60	-88.6
					CHANNELS 3  Xrotation Yrotation Zrotation
					JOINT left_foot_ee
					{
						OFFSET	-22.5	-16.5	-42.2
						CHANNELS 3  Xrotation Yrotation Zrotation
						End Site
						{
							OFFSET	1	0	0
						}
					}
				}
			}
		}
	}
	JOINT right_hip
	{
		OFFSET	82.8	-127.5	0.300001
		CHANNELS 3  Xrotation Yrotation Zrotation
		JOINT right_knee
		{
			OFFSET	28.2	-396.7	2.2
			CHANNELS 3  Xrotation Yrotation Zrotation
			JOINT right_ankle
			{
				OFFSET	11.7	-411.3	35.4
				CHANNELS 3  Xrotation Yrotation Zrotation
				JOINT right_toes
				{
					OFFSET	0	-60	-88.6
					CHANNELS 3  Xrotation Yrotation Zrotation
					JOINT right_foot_ee
					{
						OFFSET	22.5	-16.5	-42.2
						CHANNELS 3  Xrotation Yrotation Zrotation
						End Site
						{
							OFFSET	1	0	0
						}
					}
				}
			}
		}
	}
}
MOTION
Frames: 8
Frame Time: 0.02
892.488 696.289 -583.845 33.0904 -73.7132 32.2757 -6.30641 0.434524 1.05265 -6.30587 0.366665 1.07816 -6.29728 0.00702952 1.13877 -6.29905 0.186778 1.12338 -2.45494 -3.56469 3.90439 -2.35005 -9.52423 3.60451 -0.0 0.0 -0.0 1.3138 4.79729 2.98221 -12.963 -5.19008 65.7705 0.393875 -11.0407 0.0380673 -11.2138 -0.527263 1.33098 -0.535988 22.5997 5.91595 -0.0 0.0 -0.0 11.2221 3.71986 -22.4096 25.1444 33.7336 -45.762 6.77416 73.3699 -5.04915 -28.4455 1.81431 -3.11355 -3.74585 -6.36665 22.3981 0.0 0.0 0.0 19.5773 17.684 0.929544 5.21088 -0.249383 -0.760287 -20.4252 -15.052 3.35526 3.30766 -0.0 -0.0 -0.0 0.0 -0.0 -30.608 21.2684 -11.1834 3.02818 0.136493 0.444545 -25.6984 -30.3406 -4.16034 -27.4787 0.0 0.0 0.0 0.0 0.0 
921.625 689.16 -589.314 31.8719 -72.6405 31.2697 -6.06142 0.272516 1.22663 -6.0606 0.193916 1.24148 -6.05449 -0.203281 1.23998 -6.05664 -0.00491387 1.25652 -4.78393 -4.49901 3.07369 -4.71847 -10.5773 2.38018 -0.0 0.0 -0.0 1.78631 5.02777 3.86872 -14.0082 -7.4874 63.6431 0.317849 -8.94813 0.0248706 -13.3946 -0.659575 1.57665 -0.727798 23.2807 5.0807 -0.0 0.0 -0.0 10.7596 2.30731 -21.3559 24.1627 33.1796 -47.8838 6.88465 73.6211 -5.15509 -24.889 1.50545 -2.77836 -3.78649 -7.00412 22.3232 0.0 0.0 0.0 17.6263 17.6563 1.05559 5.15354 -0.246263 -0.752047 -13.6956 -17.2491 2.28106 2.21985 -0.0 -0.0 -0.0 0.0 -0.0 -33.2444 22.024 -11.5622 5.90779 0.287958 0.860186 -25.3864 -30.2975 -4.10867 -28.0916 0.0 0.0 0.0 0.0 0.0 
953.075 681.987 -598.875 36.17 -70.9478 35.7287 -5.84974 0.387664 1.32795 -5.84881 0.302386 1.34992 -5.83936 -0.128886 1.37736 -5.842 0.0902375 1.38043 -7.11647 -5.93605 -0.760089 -7.11714 -10.4875 -1.97266 -0.0 0.0 -0.0 2.78941 5.29168 5.72464 -15.6268 -10.4804 60.6415 0.193343 -5.47104 0.00923792 -15.2197 -0.777451 1.7783 -0.884642 29.0926 6.56943 -0.0 0.0 -0.0 9.40872 0.475524 -18.4579 20.4101 32.6173 -48.951 7.41313 74.7268 -5.66356 -19.6091 1.08687 -2.2473 -4.06571 -8.27019 23.5661 0.0 0.0 0.0 14.8903 17.0092 1.12027 2.24217 -0.0988048 -0.329845 -6.77481 -18.893 1.13346 1.72939 -0.0 -0.0 -0.0 0.0 -0.0 -37.9272 23.1202 -12.2287 6.14875 0.301579 0.89462 -21.107 -31.7755 -3.45045 -28.5677 0.0 0.0 0.0 0.0 0.0 
972.467 682.179 -601.401 36.5342 -72.5945 36.1397 -5.68433 0.487927 1.41017 -5.68331 0.397214 1.43835 -5.67066 -0.0615527 1.49091 -5.67372 0.174655 1.48193 -7.78395 -5.37817 -0.0444685 -7.79146 -9.99689 -1.19872 -0.0 0.0 -0.0 2.84688 5.09827 5.81817 -15.3139 -11.8232 60.9868 0.199244 -5.63696 0.00980916 -16.0835 -0.835475 1.87243 -0.787583 28.7663 6.96306 -0.0 0.0 -0.0 9.64021 -0.0961371 -18.91 19.7927 32.3165 -50.1888 7.12527 74.1434 -5.38625 -19.1447 1.05244 -2.19881 -3.72655 -9.66162 20.375 0.0 0.0 0.0 14.9205 16.8755 0.571929 1.79447 -0.0780435 -0.264289 -5.24916 -20.6051 0.889793 2.32813 -0.0 -0.0 -0.0 0.0 -0.0 -38.7302 23.7378 -11.0257 6.49677 0.321507 0.944251 -20.2158 -29.8055 -3.2579 -29.3927 0.0 0.0 0.0 0.0 0.0 
990.731 687.369 -607.581 38.9799 -74.5172 38.7093 -5.46748 0.489513 1.49961 -5.46631 0.393108 1.52771 -5.45293 -0.0868023 1.57508 -5.45635 0.16301 1.56903 -7.32035 -4.45519 0.812062 -7.31878 -8.87073 -0.114439 -0.0 0.0 -0.0 3.36768 5.6698 6.80343 -14.5496 -12.6868 60.7426 0.189836 -5.37238 0.00890654 -16.7854 -0.883673 1.94827 -1.02956 28.7198 5.63451 -0.0 0.0 -0.0 9.54375 -0.745411 -18.6837 16.9493 32.2374 -51.1315 7.07667 74.0406 -5.33951 -18.1666 0.981213 -2.09577 -3.27469 -9.95187 17.1332 0.0 0.0 0.0 14.9317 16.8775 0.0457596 0.418649 -0.0174651 -0.0618706 -3.90186 -19.7795 0.654271 2.09236 -0.0 -0.0 -0.0 0.0 -0.0 -38.8388 23.368 -10.2097 6.07604 0.297453 0.884234 -18.2772 -29.7971 -2.94266 -29.1101 0.0 0.0 0.0 0.0 0.0 
1010.85 690.647 -617.482 38.5304 -75.054 38.4773 -5.23824 0.295375 1.51482 -5.23699 0.198396 1.53054 -5.22914 -0.267404 1.52001 -5.23236 -0.0240204 1.54316 -6.19616 -3.08375 0.681158 -6.19006 -6.20481 0.0990941 -0.0 0.0 -0.0 3.36753 6.2432 6.83102 -14.0192 -13.8934 61.243 0.286151 -8.06817 0.0201808 -18.1215 -0.977975 2.091 -1.41268 28.0919 3.29062 -0.0 0.0 -0.0 9.9498 -1.99484 -19.4433 14.7693 32.3182 -50.8988 7.14858 74.1923 -5.40868 -16.1528 0.840194 -1.87994 -2.83481 -10.8271 13.7329 0.0 0.0 0.0 14.8652 17.3964 -0.293408 -2.02621 0.0781087 0.301128 0.33466 -22.0691 -0.0567767 4.2508 -0.0 -0.0 -0.0 0.0 -0.0 -39.6611 23.7155 -9.15118 6.24643 0.307141 0.908561 -11.7962 -27.7528 -1.86466 -32.2327 0.0 0.0 0.0 0.0 0.0 
1034.91 694.566 -624.505 41.3018 -75.9887 41.3257 -5.20772 0.317818 1.61345 -5.20629 0.214519 1.6304 -5.1973 -0.280918 1.62028 -5.20096 -0.0215352 1.64431 -7.95421 -1.69578 1.03419 -7.95175 -3.89601 0.65788 -0.0 0.0 -0.0 3.92201 6.25061 7.83956 -12.67 -15.7528 60.9886 0.248015 -7.0044 0.0151789 -19.5583 -1.08308 2.242 -1.3806 26.1602 2.61152 -0.0 0.0 -0.0 9.58891 -3.74191 -18.6095 13.3339 32.0837 -53.2573 6.96983 73.8099 -5.23685 -13.558 0.669866 -1.59485 -2.11523 -12.8084 8.06948 0.0 0.0 0.0 12.7667 17.0513 -0.483309 -1.50382 0.0589921 0.223237 1.99681 -23.0713 -0.34065 4.6188 -0.0 -0.0 -0.0 0.0 -0.0 -37.9182 23.178 -7.95669 0.0548179 0.00226121 0.00810839 -9.65712 -24.7139 -1.4973 -32.7765 0.0 0.0 0.0 0.0 0.0 
1057.49 701.829 -628.348 49.4045 -76.9831 49.523 -5.27303 0.4327 1.54697 -5.27176 0.333399 1.57136 -5.25972 -0.151539 1.59916 -5.26327 0.102888 1.60303 -8.53209 -0.930779 1.82545 -8.5231 -3.01734 1.59127 -0.0 0.0 -0.0 4.19385 6.30529 8.33661 -12.4171 -17.2257 60.6054 0.319201 -8.98558 0.0250813 -19.9506 -1.11244 2.28279 -1.47671 23.4559 0.855826 -0.0 0.0 -0.0 10.5003 -4.54208 -20.3669 9.27586 31.8624 -51.6495 6.55057 72.8375 -4.83521 -11.8953 0.567598 -1.40828 -1.70172 -13.9866 4.89167 0.0 0.0 0.0 10.1589 17.2004 -1.53292 -0.619178 0.0249996 0.0917308 3.70422 -26.1902 -0.650979 4.2954 -0.0 -0.0 -0.0 0.0 -0.0 -33.368 22.6403 -7.41918 -16.1518 -0.32161 -2.4496 4.65467 -23.7384 0.698414 -29.8039 0.0 0.0 0.0 0.0 0.0 
